<svg id="shopping-icon" xmlns="http://www.w3.org/2000/svg" width="24" height="24" viewBox="0 0 24 24">
  <circle id="Ellipse_31" data-name="Ellipse 31" cx="12" cy="12" r="12" fill="#ffd4fe"/>
  <path id="shopping" d="M8.467,8.289A3.037,3.037,0,0,1,5.43,5.252H6.645a1.822,1.822,0,1,0,3.645,0H11.5A3.037,3.037,0,0,1,8.467,8.289m0-6.074a1.822,1.822,0,0,1,1.822,1.822H6.645A1.822,1.822,0,0,1,8.467,2.215m4.252,1.822H11.5a3.037,3.037,0,0,0-6.074,0H4.215A1.211,1.211,0,0,0,3,5.252v7.289a1.215,1.215,0,0,0,1.215,1.215h8.5a1.215,1.215,0,0,0,1.215-1.215V5.252A1.215,1.215,0,0,0,12.719,4.037Z" transform="translate(3.533 4.622)" fill="#ff2cf7"/>
</svg>
