<svg id="Icon_public_transport" data-name="Icon public transport" xmlns="http://www.w3.org/2000/svg" width="24" height="24" viewBox="0 0 24 24">
  <circle id="Ellipse_25" data-name="Ellipse 25" cx="12" cy="12" r="12" fill="#6cbead"/>
  <g id="Rectangle_657" data-name="Rectangle 657" transform="translate(5 13)" fill="#fff" stroke="#fff" stroke-width="1">
    <path d="M0,0H14a0,0,0,0,1,0,0V4a2,2,0,0,1-2,2H2A2,2,0,0,1,0,4V0A0,0,0,0,1,0,0Z" stroke="none"/>
    <path d="M1,.5H13a.5.5,0,0,1,.5.5V4A1.5,1.5,0,0,1,12,5.5H2A1.5,1.5,0,0,1,.5,4V1A.5.5,0,0,1,1,.5Z" fill="none"/>
  </g>
  <g id="Rectangle_658" data-name="Rectangle 658" transform="translate(5 6)" fill="none" stroke="#fafafa" stroke-width="2">
    <path d="M4,0h6a4,4,0,0,1,4,4V9a0,0,0,0,1,0,0H0A0,0,0,0,1,0,9V4A4,4,0,0,1,4,0Z" stroke="none"/>
    <path d="M4,1h6a3,3,0,0,1,3,3V7a1,1,0,0,1-1,1H2A1,1,0,0,1,1,7V4A3,3,0,0,1,4,1Z" fill="none"/>
  </g>
  <g id="Rectangle_659" data-name="Rectangle 659" transform="translate(11 5)" fill="#fff" stroke="#fff" stroke-width="1">
    <rect width="2" height="1" stroke="none"/>
    <rect x="0.5" y="0.5" width="1" fill="none"/>
  </g>
  <path id="Path_112" data-name="Path 112" d="M4404,3616l-4,3" transform="translate(-4393 -3598)" fill="none" stroke="#fff" stroke-linecap="square" stroke-width="1"/>
  <path id="Path_113" data-name="Path 113" d="M4400,3616l4,3" transform="translate(-4387 -3598)" fill="none" stroke="#fff" stroke-linecap="square" stroke-width="1"/>
  <path id="Path_111" data-name="Path 111" d="M4400,3600l1-1h6l1,1" transform="translate(-4392 -3596)" fill="none" stroke="#fff" stroke-width="1"/>
  <g id="Ellipse_26" data-name="Ellipse 26" transform="translate(8 15)" fill="#fff" stroke="#6cbead" stroke-width="1">
    <circle cx="1" cy="1" r="1" stroke="none"/>
    <circle cx="1" cy="1" r="0.5" fill="none"/>
  </g>
  <g id="Ellipse_27" data-name="Ellipse 27" transform="translate(14 15)" fill="#fff" stroke="#6cbead" stroke-width="1">
    <circle cx="1" cy="1" r="1" stroke="none"/>
    <circle cx="1" cy="1" r="0.5" fill="none"/>
  </g>
</svg>
